{"title":"The Mummy 2017 FULL HDCAM x264-JiMMY","magnet":"magnet:?xt=urn:btih:243acd4da240491c92485b64276a87d34db02f16&dn=The+Mummy+2017+FULL+HDCAM+x264-JiMMY&tr=udp%3A%2F%2Ftracker.leechers-paradise.org%3A6969&tr=udp%3A%2F%2Fzer0day.ch%3A1337&tr=udp%3A%2F%2Fopen.demonii.com%3A1337&tr=udp%3A%2F%2Ftracker.coppersurfer.tk%3A6969&tr=udp%3A%2F%2Fexodus.desync.com%3A6969","uploader":"makintos13","categoryP":"video","categoryS":"movies","size":"1648194068","seeders":"0","leechers":"0","description":"screens:\r\n <a href=\"\nhttps://imgmak.com/z7r\" rel=\"nofollow\" target=\"_NEW\">\nhttps://imgmak.com/z7r</a>\r\n <a href=\"\nhttps://imgmak.com/z7B\" rel=\"nofollow\" target=\"_NEW\">\nhttps://imgmak.com/z7B</a>\r\n <a href=\"\nhttps://imgmak.com/z7I\" rel=\"nofollow\" target=\"_NEW\">\nhttps://imgmak.com/z7I</a>\r\n <a href=\"\nhttps://imgmak.com/z7q\" rel=\"nofollow\" target=\"_NEW\">\nhttps://imgmak.com/z7q</a>\r\n <a href=\"\nhttps://imgmak.com/z7t\" rel=\"nofollow\" target=\"_NEW\">\nhttps://imgmak.com/z7t</a>\r\n <a href=\"\nhttps://imgmak.com/z72\" rel=\"nofollow\" target=\"_NEW\">\nhttps://imgmak.com/z72</a>\r\n\r\n <a href=\"\nhttp://www.imdb.com/title/tt2345759/\" rel=\"nofollow\" target=\"_NEW\">\nhttp://www.imdb.com/title/tt2345759/</a> \r\n\r\nAn ancient princess is awakened from her crypt beneath the desert, bringing with her malevolence grown over millennia, and terrors that defy human comprehension. \r\nDirector: Alex Kurtzman \r\nWriters: David Koepp (screenplay), Christopher McQuarrie (screenplay) \r\nStars: Tom Cruise, Sofia Boutella, Annabelle Wallis \r\nGenres: Action | Adventure | Fantasy | Horror \r\nCountry: USA \r\n\r\nThe Mummy 2017 FULL HDCAM x264-JiMMY \r\n\r\nLanguage: English \r\nSample: Yes \r\nSource: LatinoHQ/English Audio \r\n\r\nNote: Full Movie.... End credits are removed! \r\n\r\nFormat : Matroska \r\nFormat version : Version 4 / Version 2 \r\nFile size : 1.52 GiB \r\nDuration : 1 h 37 min \r\nOverall bit rate mode : Variable \r\nOverall bit rate : 2 242 kb/s \r\nEncoded date : UTC 2017-06-11 22:15:30 \r\nWriting application : mkvmerge v9.9.0 (&apos;Pick Up&apos;) 64bit \r\nWriting library : libebml v1.3.4 + libmatroska v1.4.5 \r\n\r\nVideo \r\nID : 1 \r\nFormat : AVC \r\nFormat/Info : Advanced Video Codec \r\nFormat profile : <a class=\"__cf_email__\" href=\"/cdn-cgi/l/email-protection\" data-cfemail=\"d199b8b6b9919de5ffe3\">[email&#xA0;protected]</a><script data-cfhash=\"f9e31\" type=\"text/javascript\">/* <![CDATA[ */!function(t,e,r,n,c,a,p){try{t=document.currentScript||function(){for(t=document.getElementsByTagName('script'),e=t.length;e--;)if(t[e].getAttribute('data-cfhash'))return t[e]}();if(t&&(c=t.previousSibling)){p=t.parentNode;if(a=c.getAttribute('data-cfemail')){for(e='',r='0x'+a.substr(0,2)|0,n=2;a.length-n;n+=2)e+='%'+('0'+('0x'+a.substr(n,2)^r).toString(16)).slice(-2);p.replaceChild(document.createTextNode(decodeURIComponent(e)),c)}p.removeChild(t)}}catch(u){}}()/* ]]> */</script> \r\nFormat settings, CABAC : Yes \r\nFormat settings, ReFrames : 4 frames \r\nCodec ID : V_MPEG4/ISO/AVC \r\nDuration : 1 h 37 min \r\nBit rate mode : Variable \r\nBit rate : 2 048 kb/s \r\nMaximum bit rate : 62.5 Mb/s \r\nWidth : 720 pixels \r\nHeight : 320 pixels \r\nDisplay aspect ratio : 2.25:1 \r\nFrame rate mode : Constant \r\nFrame rate : 24.000 FPS \r\nColor space : YUV \r\nChroma subsampling : 4:2:0 \r\nBit depth : 8 bits \r\nScan type : Progressive \r\nBits/(Pixel*Frame) : 0.370 \r\nStream size : 1.39 GiB (91%) \r\nWriting library : x264 core 148 r2744 b97ae06 \r\nEncoding settings : cabac=1 / ref=5 / deblock=1:0:0 / analyse=0x3:0x133 / me=umh / subme=9 / psy=1 / psy_rd=1.00:0.00 / mixed_ref=1 / me_range=18 / chroma_me=1 / trellis=2 / 8x8dct=1 / cqm=0 / deadzone=21,11 / fast_pskip=0 / chroma_qp_offset=-2 / threads=16 / lookahead_threads=1 / sliced_threads=0 / slices=4 / nr=0 / decimate=1 / interlaced=0 / bluray_compat=0 / constrained_intra=0 / bframes=3 / b_pyramid=1 / b_adapt=2 / b_bias=0 / direct=3 / weightb=1 / open_gop=0 / weightp=2 / keyint=240 / keyint_min=24 / scenecut=40 / intra_refresh=0 / rc_lookahead=40 / rc=abr / mbtree=1 / bitrate=2048 / ratetol=1.0 / qcomp=0.60 / qpmin=10 / qpmax=51 / qpstep=4 / vbv_maxrate=62500 / vbv_bufsize=78125 / nal_hrd=vbr / filler=0 / ip_ratio=1.40 / aq=1:1.00 \r\nDefault : Yes \r\nForced : No \r\nColor range : Full \r\nColor primaries : BT.709 \r\nTransfer characteristics : BT.709 \r\nMatrix coefficients : BT.709 \r\n\r\nAudio \r\nID : 2 \r\nFormat : MPEG Audio \r\nFormat version : Version 1 \r\nFormat profile : Layer 3 \r\nCodec ID : A_MPEG/L3 \r\nCodec ID/Hint : MP3 \r\nDuration : 1 h 37 min \r\nBit rate mode : Constant \r\nBit rate : 192 kb/s \r\nChannel(s) : 2 channels \r\nSampling rate : 44.1 kHz \r\nFrame rate : 38.281 FPS (1152 spf) \r\nCompression mode : Lossy \r\nStream size : 134 MiB (9%) \r\nDefault : Yes \r\nForced : No","last_updated":"2017-06-12T12:01:08.365Z","parsed":{"xt":"urn:btih:243acd4da240491c92485b64276a87d34db02f16","dn":"The Mummy 2017 FULL HDCAM x264-JiMMY","tr":["udp://exodus.desync.com:6969","udp://open.demonii.com:1337","udp://tracker.coppersurfer.tk:6969","udp://tracker.leechers-paradise.org:6969","udp://zer0day.ch:1337"],"infoHash":"243acd4da240491c92485b64276a87d34db02f16","infoHashBuffer":{"type":"Buffer","data":[36,58,205,77,162,64,73,28,146,72,91,100,39,106,135,211,77,176,47,22]},"name":"The Mummy 2017 FULL HDCAM x264-JiMMY","announce":["udp://exodus.desync.com:6969","udp://open.demonii.com:1337","udp://tracker.coppersurfer.tk:6969","udp://tracker.leechers-paradise.org:6969","udp://zer0day.ch:1337"],"urlList":[]}}